<svg width="55" height="55" viewBox="0 0 55 55" fill="none" xmlns="http://www.w3.org/2000/svg">
<path fill-rule="evenodd" clip-rule="evenodd" d="M18.6666 41.4033C18.7783 41.5791 18.9325 41.7248 19.112 41.8266C19.2916 41.9283 19.4942 41.9868 19.7045 41.995L26.4437 42.2153C28.3535 42.28 29.9997 42.0698 31.477 41.5715C34.6916 40.4835 37.3779 38.2771 39.0367 35.3604L44.5096 25.7402C45.1411 24.6329 44.9848 23.2291 44.1191 22.2519L36.3946 13.5064C35.9305 12.978 35.296 12.6173 34.6132 12.4911L23.1473 10.3098C21.8658 10.0663 20.5809 10.6474 19.9485 11.7562L14.4798 21.3693C12.8186 24.2902 12.2946 27.7281 13.0047 31.0519C13.3287 32.5713 13.9873 34.0951 15.0215 35.7132L18.6666 41.4033ZM23.8073 29.3511C23.9031 29.6819 24.1232 29.9449 24.4038 30.1031C24.6837 30.2628 25.0217 30.3183 25.3548 30.2313L34.1859 27.9323C34.8498 27.7589 35.2328 27.0855 35.0434 26.4269C34.8525 25.7676 34.1607 25.3719 33.4968 25.5453L25.8678 27.5307L24.9818 24.4677C24.791 23.8083 24.0997 23.4149 23.4344 23.5875C22.7704 23.7609 22.3875 24.4343 22.5783 25.0937L23.8073 29.3511Z" fill="#FF8A00"/>
</svg>
