<svg width="132" height="132" viewBox="0 0 132 132" fill="none" xmlns="http://www.w3.org/2000/svg">
<rect x="48.4307" y="0.430664" width="96" height="96" rx="16" transform="rotate(30 48.4307 0.430664)" fill="white" fill-opacity="0.2" stroke="url(#paint0_linear_1_394)"/>
<rect x="52.823" y="16.8232" width="72" height="72" rx="16" transform="rotate(30 52.823 16.8232)" fill="white"/>
<path fill-rule="evenodd" clip-rule="evenodd" d="M57.6666 80.4033C57.7783 80.5791 57.9325 80.7248 58.112 80.8266C58.2916 80.9283 58.4942 80.9868 58.7045 80.995L65.4437 81.2153C67.3535 81.28 68.9997 81.0698 70.477 80.5715C73.6916 79.4835 76.3779 77.2771 78.0367 74.3604L83.5096 64.7402C84.1411 63.6329 83.9848 62.2291 83.1191 61.2519L75.3946 52.5064C74.9305 51.978 74.296 51.6173 73.6132 51.4911L62.1473 49.3098C60.8658 49.0663 59.5809 49.6474 58.9485 50.7562L53.4798 60.3693C51.8186 63.2902 51.2946 66.7281 52.0047 70.0519C52.3287 71.5713 52.9873 73.0951 54.0215 74.7132L57.6666 80.4033ZM62.8073 68.3511C62.9031 68.6819 63.1232 68.9449 63.4038 69.1031C63.6837 69.2628 64.0217 69.3183 64.3548 69.2313L73.1859 66.9323C73.8498 66.7589 74.2328 66.0855 74.0434 65.4269C73.8525 64.7676 73.1607 64.3719 72.4968 64.5453L64.8678 66.5307L63.9818 63.4677C63.791 62.8083 63.0997 62.4149 62.4344 62.5875C61.7704 62.7609 61.3875 63.4343 61.5783 64.0937L62.8073 68.3511Z" fill="#FF8A00"/>
<defs>
<linearGradient id="paint0_linear_1_394" x1="48.4307" y1="0.430664" x2="144.431" y2="96.4307" gradientUnits="userSpaceOnUse">
<stop stop-color="white"/>
<stop offset="1" stop-color="white" stop-opacity="0"/>
</linearGradient>
</defs>
</svg>
