<?xml version="1.0" encoding="UTF-8"?>
<svg id="_レイヤー_2" data-name="レイヤー 2" xmlns="http://www.w3.org/2000/svg" viewBox="0 0 132.54 108.03">
  <defs>
    <style>
      .cls-1 {
        fill: #6cb7c6;
      }

      .cls-2 {
        fill: #d5a6ae;
      }

      .cls-3 {
        fill: #a8ba70;
      }

      .cls-4 {
        fill: #5ba68e;
      }
    </style>
  </defs>
  <g id="_レイヤー_1-2" data-name="レイヤー 1">
    <path class="cls-4" d="m106.01,58.72c-8.43,5.66-16.35,13.15-26.97,13.95.45-3.45,2.42-6.26,5.07-8.62,2.36-2.1,5.25-3.84,8.07-5.34,6-3.18,12.66-6.45,15.17-12.49.16-.38.28-.86-.01-1.2-.59-.67-1.58.16-1.99.88-5.26,9.14-19.76,10.19-25.93,18.79-.03-7.56,3.27-14.88,8.98-19.89-.65-.83-2-.3-2.78.34-4.78,3.92-7.89,9.55-8.61,15.6-.26,2.17-.23,4.46-1.25,6.39-1.54,2.92-5.17,4.46-6.54,7.46-.25-5.06-1.67-10.08-2.13-15.14-.54-5.97-1.05-10.32,1.65-15.73,1.87-3.75,3.47-4.38,8.14-2.48,2.53,1.03,10.93.41,10.77-2.69-1.79-.52-3.94.29-5.78.38-2.99.15-5.4-.67-8.29-1.41-.87-.22-1.31-1.19-.92-2,1.25-2.57,2.14-4.74,4.93-6.39.95-.56,1.86-2.04.75-2.42-.46-.16-.93.1-1.31.36-7.07,4.87-11.97,12.31-13.52,20.54-.92-8.25-3.27-14.47-2.76-24.74-1.7,2.1-2.57,4.71-3.12,7.35-1.58,7.62-.58,15.85,2.81,23.26-6.12-3.96-12.79-8.64-14.27-15.31-.57-2.56-.29-5.17-.56-7.76-.27-2.59-1.27-5.38-3.62-6.91-.67,1.05-.15,2.43.3,3.64,1.78,4.82,2.22,9.98,1.28,14.84-4.77-2.86-8.53-7.26-10.41-12.2-.22-.58-.44-1.21-.94-1.63-.49-.43-1.37-.53-1.73-.05-.29.39-.11.95.09,1.42,3.04,7.17,9.21,12.86,15.19,18.31-6.38,2.68-14.42,2.07-20.7-1.57-.73-.42-1.87-.81-2.23-.13-.3.57.34,1.21.91,1.62,4.42,3.16,9.48,5.8,14.79,5.23,3.66-.39,6.87-1.94,10.6-1.75,4.32.23,7.99,3.83,9.41,7.72,1.42,3.89,1.09,8.01.75,12-.42,4.87-.85,9.73-1.27,14.6-12.74-4.88-22.23-11.75-33.38-23.01-.68.82-.12,2.07.48,3.02,2.47,3.92,5.54,7.54,9.08,10.7-7.58-.89-15.09-2.98-22.08-6.16-.61,1.43,1.03,2.95,2.57,3.71,5.11,2.54,11.04,2.61,16.54,4.11,4.38,1.19,8.47,3.28,12.51,5.35,3.5,1.79,6.99,3.58,10.49,5.37.51.26,1.06.56,1.32,1.05.37.7.03,1.48-.3,2.16-2.39,4.99-3.37,10.62-2.87,16.22h13.27c1.18-2.71.25-9.15.77-11.49.94-4.19,2.76-10.93,5.83-14,5.32-5.3,12.67-5.74,19.34-9.52,6.67-3.78,13.29-8.11,17.18-14.42-.57-.89-1.98-.44-2.83.13"/>
    <path class="cls-1" d="m55.16,57.63c-.42-1.52-1.21-3.24-2.8-3.41-1.55-.16-2.49,1.5-3.71,2.19-1.31.74-2.83.95-4.27.54-1.33-.37-2.51-1.62-3.99-1.02-1.48.6-1.76,2.48-1.74,4.06.03,2.29.25,4.58.66,6.85.52,2.84,1.34,5.63,2.44,8.33.28.68.63,1.41,1.31,1.72.14.06.28.1.42.12.48-.1.93-.31,1.31-.69,1.02-1.04.9-2.65,1.06-4.07.12-1.09.42-2.83,1.4-3.49,2.07-1.39,3.73,1.03,4.41,2.66.55,1.31.88,2.9,2.15,3.61.47.26.96.34,1.45.3.13-.06.25-.14.36-.23.57-.49.71-1.29.78-2.01.31-2.9.31-5.82.02-8.68-.24-2.29-.66-4.56-1.28-6.76"/>
    <path class="cls-4" d="m23.99,51.18c-1.25-1.48-2.82-2.67-4.65-3.27-2.47-.81-5.15-.48-7.72-.14-1.88.25-.12,1.82.41,2.55,1.02,1.42,1.94,2.92,3,4.31,1.42,1.84,3.18,3.54,5.38,4.29,2.32.8,5.04.53,7.03,1.96.27.2.78.33.83,0,0-.06,0-.12-.02-.18-.7-2.62-1.49-5.26-2.87-7.59-.4-.68-.86-1.33-1.38-1.93"/>
    <path class="cls-4" d="m31.05,35.46c-.83-1.75-2.04-3.31-3.66-4.36-2.18-1.42-4.85-1.78-7.43-2.11-1.88-.24-.58,1.72-.26,2.57.62,1.64,1.12,3.32,1.8,4.93.9,2.15,2.16,4.23,4.09,5.53,2.04,1.37,4.73,1.81,6.29,3.7.21.26.67.52.8.21.02-.06.02-.12.02-.18,0-2.71-.09-5.46-.83-8.07-.22-.76-.49-1.51-.83-2.22"/>
    <path class="cls-3" d="m14.43,33.5c-1.42-.93-3.03-1.54-4.71-1.59-2.27-.06-4.43.88-6.5,1.8-1.51.67.35,1.55.97,2.04,1.21.94,2.34,1.96,3.58,2.86,1.65,1.19,3.54,2.17,5.57,2.26,2.14.09,4.35-.81,6.37-.1.28.1.74.08.69-.2,0-.05-.04-.1-.06-.14-1.24-2.02-2.55-4.03-4.29-5.64-.51-.47-1.05-.9-1.63-1.28"/>
    <path class="cls-3" d="m52.6,17.25c-.55-1.42-1.41-2.72-2.61-3.64-1.63-1.24-3.7-1.69-5.71-2.1-1.46-.3-.56,1.32-.36,2,.39,1.32.68,2.67,1.12,3.98.58,1.74,1.44,3.45,2.89,4.59,1.52,1.19,3.61,1.7,4.72,3.28.15.22.5.45.62.22.02-.04.02-.09.03-.14.16-2.13.26-4.29-.17-6.39-.12-.61-.3-1.21-.52-1.79"/>
    <path class="cls-4" d="m39.61,21.38c-.63-1.57-1.6-3-2.94-4-1.82-1.35-4.13-1.82-6.36-2.26-1.62-.32-.6,1.47-.37,2.23.45,1.46.79,2.95,1.29,4.4.66,1.92,1.65,3.81,3.26,5.05,1.7,1.3,4.03,1.84,5.28,3.58.17.24.56.49.69.23.02-.05.03-.1.03-.16.15-2.37.23-4.77-.27-7.08-.15-.67-.35-1.34-.6-1.98"/>
    <path class="cls-4" d="m22.72,14.04c-1.11-1.28-2.49-2.31-4.1-2.81-2.16-.68-4.5-.37-6.74-.04-1.64.24-.09,1.59.38,2.22.9,1.23,1.72,2.53,2.67,3.73,1.26,1.6,2.81,3.06,4.74,3.7,2.03.67,4.41.41,6.16,1.64.24.17.69.28.72,0,0-.05,0-.11-.02-.16-.64-2.28-1.35-4.58-2.58-6.6-.36-.59-.77-1.15-1.22-1.68"/>
    <path class="cls-4" d="m12.83,59.2c-1.84-.61-3.8-.82-5.68-.39-2.53.59-4.65,2.26-6.67,3.88-1.48,1.19.84,1.62,1.67,1.97,1.61.69,3.17,1.49,4.8,2.12,2.17.84,4.55,1.38,6.82.89,2.4-.52,4.58-2.16,7.03-1.97.33.03.84-.12.71-.43-.02-.06-.07-.1-.11-.14-1.96-1.88-3.99-3.73-6.39-5-.7-.37-1.43-.69-2.18-.94"/>
    <path class="cls-3" d="m26.03,82.44c-1.91.35-3.73,1.11-5.16,2.39-1.94,1.73-2.99,4.22-3.98,6.62-.72,1.75,1.51,1.01,2.41.92,1.74-.17,3.49-.22,5.23-.45,2.31-.31,4.65-.98,6.41-2.51,1.85-1.61,2.98-4.1,5.22-5.11.31-.14.68-.51.41-.72-.05-.04-.11-.05-.17-.07-2.62-.71-5.29-1.34-8.01-1.31-.79.01-1.58.08-2.36.22"/>
    <path class="cls-4" d="m38.14,89.37c-1.55.81-2.92,1.95-3.81,3.44-1.21,2.01-1.45,4.43-1.66,6.76-.16,1.7,1.57.47,2.32.15,1.45-.61,2.95-1.12,4.39-1.78,1.9-.88,3.75-2.08,4.85-3.87,1.17-1.88,1.47-4.33,3.13-5.79.23-.2.45-.62.17-.73-.05-.02-.11-.02-.16-.02-2.45.09-4.92.25-7.25,1.01-.68.22-1.34.49-1.97.82"/>
    <path class="cls-4" d="m116.03,37.19c1.45-.8,3.06-1.28,4.7-1.2,2.21.1,4.25,1.18,6.2,2.23,1.42.77-.45,1.48-1.1,1.91-1.24.83-2.42,1.74-3.7,2.52-1.69,1.04-3.6,1.86-5.58,1.8-2.09-.06-4.18-1.1-6.2-.56-.28.07-.73.03-.66-.25.01-.05.04-.09.07-.14,1.35-1.88,2.77-3.74,4.58-5.18.53-.42,1.09-.8,1.68-1.12"/>
    <path class="cls-3" d="m99.21,23.34c1.42-.93,3.03-1.54,4.71-1.59,2.27-.06,4.43.88,6.5,1.8,1.51.67-.35,1.55-.97,2.04-1.21.94-2.34,1.96-3.58,2.86-1.65,1.19-3.54,2.17-5.57,2.26-2.14.09-4.35-.81-6.37-.1-.28.1-.74.08-.69-.21,0-.05.04-.1.06-.14,1.24-2.02,2.55-4.03,4.29-5.64.51-.47,1.05-.9,1.63-1.28"/>
    <path class="cls-3" d="m68.35,17.25c.55-1.42,1.41-2.72,2.61-3.64,1.62-1.24,3.7-1.69,5.71-2.1,1.46-.3.56,1.32.36,2-.39,1.32-.68,2.67-1.12,3.98-.58,1.74-1.44,3.45-2.88,4.59-1.52,1.19-3.61,1.7-4.72,3.28-.15.22-.5.45-.62.22-.02-.04-.02-.09-.03-.14-.16-2.13-.26-4.29.17-6.39.12-.61.3-1.21.52-1.79"/>
    <path class="cls-4" d="m81.35,21.38c.63-1.57,1.6-3,2.94-4,1.82-1.35,4.13-1.82,6.36-2.26,1.62-.32.6,1.47.37,2.23-.45,1.46-.79,2.95-1.29,4.4-.66,1.92-1.65,3.81-3.26,5.05-1.7,1.3-4.03,1.84-5.28,3.58-.17.24-.56.49-.69.23-.02-.05-.03-.1-.03-.16-.15-2.37-.23-4.77.27-7.08.15-.67.35-1.34.6-1.98"/>
    <path class="cls-4" d="m87.68,3.22c1.11-1.28,2.49-2.31,4.1-2.81,2.16-.68,4.5-.36,6.74-.04,1.64.24.09,1.59-.38,2.22-.91,1.23-1.72,2.53-2.67,3.73-1.26,1.6-2.81,3.06-4.74,3.7-2.03.67-4.41.41-6.16,1.64-.24.17-.69.28-.72,0,0-.05,0-.11.02-.16.64-2.28,1.35-4.58,2.58-6.6.36-.59.77-1.15,1.22-1.68"/>
    <path class="cls-4" d="m119.7,55.57c1.84-.61,3.8-.82,5.68-.39,2.53.59,4.65,2.26,6.67,3.88,1.48,1.19-.84,1.62-1.67,1.97-1.61.69-3.17,1.49-4.8,2.12-2.17.84-4.55,1.38-6.82.88-2.4-.52-4.59-2.16-7.03-1.97-.33.03-.84-.12-.71-.43.02-.06.07-.1.11-.14,1.96-1.88,3.99-3.73,6.39-5,.7-.37,1.43-.69,2.18-.94"/>
    <path class="cls-3" d="m104.89,73.21c1.91.35,3.73,1.11,5.16,2.39,1.94,1.73,2.99,4.22,3.98,6.62.72,1.75-1.51,1.01-2.41.92-1.74-.17-3.5-.22-5.23-.45-2.31-.31-4.65-.98-6.41-2.51-1.85-1.61-2.98-4.1-5.22-5.11-.31-.14-.68-.51-.41-.72.05-.04.11-.05.17-.07,2.62-.71,5.29-1.34,8.01-1.31.79.01,1.58.08,2.36.22"/>
    <path class="cls-4" d="m90.31,83.79c1.55.81,2.92,1.95,3.81,3.44,1.21,2.01,1.45,4.43,1.66,6.76.16,1.7-1.57.47-2.32.15-1.45-.61-2.95-1.12-4.39-1.78-1.9-.88-3.75-2.08-4.85-3.87-1.16-1.88-1.47-4.32-3.13-5.79-.23-.2-.45-.62-.17-.73.05-.02.11-.02.16-.02,2.45.09,4.92.25,7.25,1.01.68.22,1.34.49,1.98.82"/>
    <path class="cls-2" d="m107.19,37.29c-.69-1.14-2.14-1.46-3.39-1.41-2.43.1-4.76,1.19-6.42,3,.93-1.69-.05-4.18-1.79-5.05-1.74-.88-3.89-.26-5.13,1.2-1.88,2.22-1.7,5.63-1.4,8.68.26,2.69-.96,10.04-1.31,11.39.68-.49,1.35-1,1.99-1.54l-.78.71c5.47-5.22,14.09-5.75,17.88-13.04.62-1.2,1.07-2.74.35-3.94"/>
  </g>
</svg>