<svg width="33" height="36" viewBox="0 0 33 36" fill="none" xmlns="http://www.w3.org/2000/svg">
<path d="M21.7683 0.976895C18.0907 0.16631 15.3676 1.74251 13.6159 3.41218C11.8707 5.07548 9.74162 6.30471 7.42856 6.98443C5.10673 7.66663 2.38013 9.23683 1.2432 12.827C-0.910878 19.6296 7.05924 24.958 8.90456 25.603C10.7499 26.2481 11.7729 27.9379 14.5731 30.9774C17.3733 34.017 20.2843 36.7549 21.9918 35.1039C23.6993 33.453 22.8349 30.7213 21.4615 27.1905C21.3671 26.9477 21.282 26.7179 21.2055 26.4999C20.6807 25.0053 22.5962 23.8993 23.6282 25.1012C23.7786 25.2763 23.9353 25.4649 24.0984 25.6681C26.4695 28.6229 28.403 30.7373 30.6865 30.084C32.97 29.4308 32.0544 25.5409 30.8222 21.596C29.5899 17.6512 28.638 15.9203 29.0021 13.9997C29.3661 12.0791 28.7366 2.51258 21.7683 0.976895ZM8.77192 10.64C8.95323 11.0816 8.74319 11.5866 8.30294 11.7696C8.14584 11.836 4.68554 13.355 5.82195 17.434C5.93022 17.8229 5.75531 18.2238 5.4211 18.4168C5.35912 18.4526 5.29182 18.4812 5.21973 18.5012C4.75883 18.6297 4.28102 18.3601 4.15258 17.8992C2.90733 13.4296 5.89012 10.8881 7.641 10.168C8.08363 9.98606 8.58985 10.1974 8.77192 10.64Z" fill="white"/>
</svg>
