<svg width="30" height="30" viewBox="0 0 30 30" fill="none" xmlns="http://www.w3.org/2000/svg">
<path d="M1.92446 14.8374C1.2754 13.7949 1.00059 12.5604 1.14569 11.339C1.29078 10.1176 1.84693 8.98294 2.72193 8.12368L3.4849 7.37511C3.82698 7.04315 4.28521 6.8603 4.76053 6.86628C5.23566 6.87226 5.6894 7.06659 6.02312 7.40706L9.13635 10.6385C9.46517 10.9792 9.64646 11.437 9.64056 11.9118C9.63466 12.3866 9.44203 12.8397 9.10485 13.172C8.76639 13.5076 8.57323 13.9641 8.56729 14.4421C8.56134 14.9202 8.74309 15.3813 9.07309 15.7254L14.0664 20.8759C14.4001 21.2164 14.8538 21.4107 15.329 21.4167C15.8043 21.4227 16.2626 21.2398 16.6047 20.9079C16.9433 20.5771 17.3984 20.3947 17.8704 20.4006C18.3423 20.4066 18.7928 20.6004 19.1231 20.9396L22.2576 24.0515C22.5876 24.3956 22.7694 24.8568 22.7634 25.3348C22.7575 25.8129 22.5643 26.2694 22.2259 26.6049L21.4629 27.3535C20.5992 28.2277 19.4635 28.7774 18.2455 28.9109C17.0275 29.0446 15.8007 28.7538 14.7701 28.0873C9.67983 24.5442 5.31797 20.0451 1.92446 14.8374Z" stroke="white" stroke-width="2" stroke-linecap="round" stroke-linejoin="round"/>
<path d="M26.8384 16.1287C26.8596 14.4259 26.5471 12.7356 25.9189 11.1542C25.2908 9.57291 24.3591 8.13155 23.1772 6.91243C21.9953 5.69329 20.5862 4.72031 19.0305 4.04899C17.4748 3.37768 15.8029 3.0212 14.1102 2.99989" stroke="white" stroke-width="2" stroke-linecap="round" stroke-linejoin="round"/>
<path d="M21.8811 16.0663C21.9074 13.9501 21.0969 11.91 19.628 10.3948C18.1591 8.87965 16.152 8.01356 14.0483 7.98709" stroke="white" stroke-width="2" stroke-linecap="round" stroke-linejoin="round"/>
</svg>
